<?xml version="1.0" encoding="UTF-8"?>
<!DOCTYPE svg PUBLIC "-//W3C//DTD SVG 1.1//EN" "http://www.w3.org/Graphics/SVG/1.1/DTD/svg11.dtd">
<!-- Creator: CorelDRAW 2021 (64-Bit) -->
<svg xmlns="http://www.w3.org/2000/svg" xml:space="preserve" width="77.3805mm" height="72.5443mm" version="1.1" style="shape-rendering:geometricPrecision; text-rendering:geometricPrecision; image-rendering:optimizeQuality; fill-rule:evenodd; clip-rule:evenodd"
viewBox="0 0 2058.18 1929.55"
 xmlns:xlink="http://www.w3.org/1999/xlink"
 xmlns:xodm="http://www.corel.com/coreldraw/odm/2003">
 <defs>
  <style type="text/css">
   <![CDATA[
    .fil1 {fill:#12424F;fill-rule:nonzero}
    .fil0 {fill:#1F1B20;fill-rule:nonzero}
    .fil5 {fill:#516466;fill-rule:nonzero}
    .fil2 {fill:#587B81;fill-rule:nonzero}
    .fil3 {fill:#E52D29;fill-rule:nonzero}
    .fil4 {fill:#FEFEFE;fill-rule:nonzero}
   ]]>
  </style>
 </defs>
 <g id="Слой_x0020_1">
  <metadata id="CorelCorpID_0Corel-Layer"/>
  <g id="_3080298498528">
   <path class="fil0" d="M922.05 1622.51l-197.18 -7.51 -16.9 11.27 -217.83 -43.19 255.39 -125.82 41.31 -193.42 200.94 48.82 122.06 195.31 -187.79 114.55zm854.45 -78.87l178.4 26.29 103.28 -54.45 -306.09 -199.06c0,0 -264.78,-251.63 -700.45,-828.15l-152.11 -107.04 46.95 -22.54 22.53 13.14 15.03 -54.45 234.73 0 -39.43 -49.3 -127.7 -42.72c0,0 106.1,-47.89 231.45,-102.82l-87.32 -56.34 -190.14 -11.26 -112.67 -54.93 -152.11 30.98 -197.18 145.07 29.58 8.44 -198.59 302.81 0 354.92 170.42 274.64 47.89 11.27 69.01 295.76 -192.96 109.86 -191.54 -36.62 -22.53 16.9 -216.9 -318.3 -38.04 38.03 194.37 307.04 -188.73 0 0 49.29 195.3 34.27 12.2 31.93 30.05 -26.29 30.05 5.63c0,0 -11.27,41.78 28.16,72.77 0,0 21.13,-23.94 30.99,-56.33l29.58 2.81 15.49 46.48 69.01 -29.58 300 57.74 4.22 30.99 49.3 -19.71 46.48 9.86 22.53 33.8 57.75 -22.54c0,0 112.67,18.31 187.32,42.26 74.65,23.94 314.08,125.35 314.08,125.35l504.21 0c0,0 -557.74,-183.09 -938.95,-246.94 0,0 3.76,-39.43 261.03,-92.02l-3.76 -274.17 78.87 -11.26 446.94 238.49z"/>
   <path class="fil1" d="M1124.87 105.16l-152.11 24.41 -31.93 37.56 22.54 45.06 0 22.54 -46.95 35.68c0,0 11.26,33.8 67.6,46.95l197.17 0 -193.42 -73.24 16.91 -58.22 221.28 -38.26c18.35,-8.1 37.5,-16.52 57.12,-25.12l-87.32 -56.33 -89.61 -5.31 18.72 44.28z"/>
   <polygon class="fil2" points="972.76,129.58 1000.93,161.5 1215,125.82 1171.81,99.53 1124.87,105.16 "/>
   <polygon class="fil1" points="374.65,487.32 420.65,505.16 518.31,381.21 578.4,360.55 685.44,242.25 852.57,242.25 860.09,197.18 796.23,197.18 704.22,97.65 740.84,30.99 543.66,176.05 573.24,184.51 "/>
   <polygon class="fil3" points="578.4,360.56 578.4,437.55 664.78,360.56 657.27,445.06 768.06,405.63 689.19,495.77 704.22,732.38 608.44,662.9 608.44,732.38 533.33,666.66 523.94,760.55 473.23,707.97 420.66,771.82 420.66,505.16 518.31,381.22 "/>
   <path class="fil4" d="M860.08 197.18l9.39 -26.29c0,0 -76.99,-3.76 -80.75,-58.22l-84.51 -15.03 92.02 99.53 63.85 0z"/>
   <path class="fil2" d="M923.93 108.92l46.95 -37.56 -82.62 -40.37 4.69 -30.99 -152.11 30.99 -36.62 66.66 84.51 15.03c0,0 58.22,-61.97 135.21,-3.76z"/>
   <path class="fil4" d="M911.31 124.41c0,11.66 -12,21.12 -26.82,21.12 -14.8,0 -26.81,-9.46 -26.81,-21.12 0,-11.67 12,-21.12 26.81,-21.12 14.81,0 26.82,9.46 26.82,21.12z"/>
   <polygon class="fil1" points="420.65,771.82 520.19,964.77 542.72,893.88 612.2,927.69 612.2,860.08 689.2,901.39 689.2,813.13 749.29,792.48 779.33,612.2 807.5,651.63 807.5,783.09 1066.65,1079.79 1044.12,1124.87 1521.1,1278.85 1983.91,1554.63 2058.18,1515.47 1752.08,1316.41 1006.56,546.47 942.71,576.52 689.2,495.77 704.22,732.39 608.45,662.9 608.45,732.39 533.33,666.65 523.94,760.55 473.23,707.97 "/>
   <polygon class="fil3" points="749.29,792.47 1044.12,1124.86 1066.65,1079.79 807.5,783.09 807.5,651.63 779.33,612.19 "/>
   <polygon class="fil2" points="969,612.2 1335.19,1151.16 1066.65,1079.8 1044.12,1124.87 1521.1,1278.85 1615,1299.51 1014.07,585.91 "/>
   <polygon class="fil3" points="636.61,1094.82 809.38,1243.17 1062.89,1307.02 1153.03,1524.85 1171.81,1524.85 1107.97,1252.56 826.28,1100.45 826.28,1153.03 "/>
   <polygon class="fil5" points="1126.74,1549.27 923.93,1643.64 728.16,1636.59 684.5,1699.97 708.44,1699.97 740.84,1663.35 784.5,1666.17 764.78,1733.77 788.72,1721.1 825.34,1670.39 883.08,1676.03 871.82,1735.18 874.64,1754.9 899.99,1740.81 933.79,1668.98 1142.24,1573.21 "/>
   <polygon class="fil5" points="438.02,1549.27 273.24,1528.14 221.13,1588.7 221.13,1622.5 249.3,1609.83 290.14,1559.13 311.26,1563.35 288.73,1622.5 297.18,1649.27 315.49,1626.26 338.03,1567.58 364.79,1573.21 360.56,1601.38 390.14,1668.98 402.82,1657.71 404.22,1577.44 "/>
   <polygon class="fil3" points="70.42,174.65 70.42,1180.26 236.62,1428.15 476.05,1470.39 594.36,1399.98 552.11,1199.98 509.85,1177.44 312.67,847.87 312.67,439.43 "/>
   <polygon class="fil3" points="70.42,1668.98 225.35,1692.93 256.34,1754.9 388.73,1732.37 684.5,1791.52 721.12,1847.86 850.69,1830.95 1222.52,1929.55 70.42,1929.55 "/>
  </g>
 </g>
</svg>
