<?xml version="1.0" encoding="UTF-8"?>
<!DOCTYPE svg PUBLIC "-//W3C//DTD SVG 1.1//EN" "http://www.w3.org/Graphics/SVG/1.1/DTD/svg11.dtd">
<!-- Creator: CorelDRAW 2021 (64-Bit) -->
<svg xmlns="http://www.w3.org/2000/svg" xml:space="preserve" width="223.865mm" height="123.265mm" version="1.1" style="shape-rendering:geometricPrecision; text-rendering:geometricPrecision; image-rendering:optimizeQuality; fill-rule:evenodd; clip-rule:evenodd"
viewBox="0 0 33248.52 18307.31"
 xmlns:xlink="http://www.w3.org/1999/xlink"
 xmlns:xodm="http://www.corel.com/coreldraw/odm/2003">
 <defs>
  <style type="text/css">
   <![CDATA[
    .fil1 {fill:#12424F}
    .fil0 {fill:#1F1B20}
    .fil3 {fill:#587B81}
    .fil2 {fill:#E52D29}
    .fil6 {fill:#12424F;fill-rule:nonzero}
    .fil5 {fill:#1F1B20;fill-rule:nonzero}
    .fil4 {fill:#587B81;fill-rule:nonzero}
    .fil7 {fill:#E52D29;fill-rule:nonzero}
   ]]>
  </style>
 </defs>
 <g id="Слой_x0020_1">
  <metadata id="CorelCorpID_0Corel-Layer"/>
  <path class="fil0" d="M24646.3 11853.05l-2910.49 -479.54 0.04 0 0 -1661.73 516.32 85.06 123.81 -1123.47 -640.12 -105.46 0 -607.76 705.92 116.29 123.82 -1123.47 -813.83 -134.08 -15.91 144.3 0 -862.72 93.4 15.39 194.78 -1767.45 2441.44 402.27 -194.78 1767.45 375.61 61.89 0 5273.05zm-1062.19 -6623.57l-813.82 -134.08 -123.81 1123.47 813.8 134.08 123.82 -1123.47zm419.5 3712.06l-813.8 -134.08 -123.84 1123.47 813.83 134.08 123.81 -1123.47zm189.6 -1720.4l-813.82 -134.1 -123.81 1123.48 813.8 134.1 123.82 -1123.48z"/>
  <path class="fil0" d="M33248.52 12715.18l-4956.42 -738.61 2.14 -22.68 2341.33 0 0 -4920.03 428.75 63.89 106.53 -1125.25 -535.28 -79.76 0 -622.52 1409.19 209.99 -167.59 1770.23 1371.35 204.35 0 714.09 -622.24 -92.69 -106.56 1125.19 728.8 108.63 0 606.29 -785.39 -117.03 -106.55 1125.25 815.78 121.56 76.16 -804.43 0 2473.53zm-1601.18 -3037.49l-815.79 -121.56 -106.52 1125.25 815.78 121.55 106.53 -1125.23zm163.15 -1723.1l-815.79 -121.58 -106.53 1125.25 815.78 121.58 106.55 -1125.25z"/>
  <polygon class="fil1" points="33248.52,11769.59 33248.52,18307.31 1632.31,18307.31 1564.77,17265.27 -0,16502.84 2323.58,15162.43 2827.07,14116.18 5137.36,13325.89 7529.22,14219.72 10218.6,12928.45 19963.74,11169.51 "/>
  <path class="fil1" d="M24281.86 563.83c1293.11,-97.65 2584.22,-195.79 3871.94,-290.37 1282.87,-94.22 2562.38,-182.31 3839.89,-273.46 -259.17,2011.84 -512.31,4015.22 -738.12,6012.12 -224.76,1987.74 -426.76,3969 -620,5941.78 -1072.38,-29.94 -2147.5,-58.64 -3226.31,-83.33 -1082.43,-24.79 -2168.57,-48.18 -3257.44,-69.02 -10.99,-1854.28 -15.07,-3715.15 6.4,-5583.69 21.57,-1876.48 68.69,-3760.67 123.63,-5654.02zm835.2 8229.7c362.66,-3.89 724.39,-6.51 1085.21,-9.1 -13.74,415.38 -27.48,829.49 -39.39,1244.87 -354.4,-1.29 -709.72,-2.61 -1065.04,-2.61 5.48,-410.17 11.88,-821.66 19.22,-1233.15zm3803.26 -24.73c358.07,-1.31 716.14,-2.6 1073.28,-3.91 -39.37,431.01 -77.82,860.73 -115.39,1289.14 -349.82,-3.91 -700.57,-6.52 -1051.32,-10.41 29.3,-424.52 61.35,-849.02 93.42,-1274.82zm-1895.68 9.12c360.83,-2.61 719.8,-3.92 1078.79,-6.52 -26.56,423.21 -53.11,846.42 -77.84,1267.01 -351.67,-1.31 -704.24,-3.91 -1057.73,-6.51 18.33,-416.69 36.64,-834.7 56.78,-1253.99zm-1868.19 -1839.97c372.71,-9.1 745.44,-19.53 1117.26,-29.94 -17.41,417.98 -33.89,835.99 -48.54,1251.37 -365.4,5.21 -730.81,11.72 -1096.2,16.93 8.24,-412.8 17.41,-825.58 27.48,-1238.36zm3914.98 -92.45c369.04,-7.81 737.21,-14.33 1105.35,-20.82 -42.14,433.6 -83.33,863.33 -122.72,1294.34 -361.74,2.61 -722.55,5.21 -1084.29,9.12 32.97,-427.11 65.94,-854.21 101.66,-1282.64zm-1952.45 42.97c370.87,-9.12 740.85,-15.62 1111.75,-23.44 -30.22,424.52 -58.61,847.71 -86.08,1270.92 -363.58,5.21 -727.14,9.12 -1090.7,13.03 20.14,-418 42.12,-839.9 65.04,-1260.51zm-1910.34 -1813.92c382.8,-15.61 765.61,-31.25 1148.39,-46.87 -20.14,418 -38.45,837.3 -56.76,1253.99 -375.47,13.03 -751.85,23.44 -1127.33,35.15 10.98,-414.09 21.98,-826.87 35.7,-1242.27zm4026.71 -157.57c380.05,-13.01 758.26,-26.04 1137.4,-40.35 -45.79,434.93 -89.74,868.55 -131.87,1299.55 -371.81,10.43 -743.63,19.55 -1116.34,28.66 36.63,-428.42 73.25,-858.14 110.81,-1287.86zm-2008.32 75.54c380.97,-13.03 761.92,-27.34 1142.89,-42.98 -32.05,425.81 -63.18,852.92 -94.33,1276.13 -374.55,11.72 -748.19,20.84 -1122.75,31.25 23.82,-420.59 47.63,-841.19 74.19,-1264.4zm-1955.2 -1789.18c393.79,-20.84 787.57,-42.98 1180.44,-63.8 -22.89,420.59 -43.95,839.9 -65.02,1259.18 -385.54,18.24 -772.93,35.17 -1159.38,53.39 13.74,-415.38 28.4,-832.08 43.96,-1248.77zm4139.35 -221.37c391.02,-19.53 780.24,-39.08 1169.45,-58.59 -48.54,434.93 -94.33,869.84 -140.11,1304.77 -381.89,14.33 -764.67,29.96 -1147.48,44.27 38.47,-428.41 77.85,-859.44 118.15,-1290.45zm-2065.1 108.08c392.88,-22.14 783.9,-41.66 1174.94,-62.5 -34.78,428.41 -68.68,855.52 -102.57,1281.33 -383.7,16.93 -768.33,33.85 -1152.96,49.49 25.63,-420.61 52.19,-845.11 80.59,-1268.32zm-1998.25 -1764.44c403.87,-27.34 808.65,-54.69 1213.43,-84.64 -25.63,423.21 -50.38,845.11 -74.17,1267.01 -396.55,23.44 -793.08,46.89 -1191.44,70.32 17.39,-416.7 33.88,-833.39 52.19,-1252.69zm4251.99 -287.79c400.2,-26.04 800.41,-50.78 1201.51,-75.52 -50.36,436.23 -99.82,871.16 -148.36,1306.09 -392.87,22.13 -785.73,44.26 -1180.44,66.39 42.12,-431.01 84.26,-863.33 127.28,-1296.95zm-2120.94 140.65c402.94,-26.05 804.97,-53.39 1207.01,-80.74 -38.47,431.01 -75.11,859.43 -111.75,1287.83 -393.79,23.45 -789.4,45.58 -1185.01,69.02 29.3,-424.5 58.61,-849.02 89.75,-1276.12z"/>
  <path class="fil2" d="M29599.82 1037.82c400.2,-26.04 800.41,-50.78 1201.51,-75.52 -50.36,436.23 -99.82,871.16 -148.36,1306.09 -392.87,22.13 -785.73,44.26 -1180.44,66.39 42.12,-431.01 84.26,-863.33 127.28,-1296.95z"/>
  <path class="fil2" d="M25271.84 3203.33c393.79,-20.84 787.57,-42.98 1180.44,-63.8 -22.89,420.59 -43.95,839.9 -65.02,1259.18 -385.54,18.24 -772.93,35.17 -1159.38,53.39 13.74,-415.38 28.4,-832.08 43.96,-1248.77z"/>
  <path class="fil2" d="M27118.98 6888.46c370.87,-9.12 740.85,-15.62 1111.75,-23.44 -30.22,424.52 -58.61,847.71 -86.08,1270.92 -363.58,5.21 -727.14,9.12 -1090.7,13.03 20.14,-418 42.12,-839.9 65.04,-1260.51z"/>
  <path class="fil1" d="M16510.81 4435.63c887.85,-190.09 1778.5,-381 2672.46,-575.86 897,-195.53 1796.72,-394.13 2701.11,-597.23 94.76,1431.82 184.89,2871.7 254.39,4316.77 69.79,1451.03 118.94,2910.91 164.09,4377.04 -730.76,79.76 -1458.94,157.09 -2182.74,231.83 -721.82,74.56 -1440.54,144.66 -2156.02,213.29 -53.97,-333.61 -108.17,-666.93 -162.84,-999.87l1732.5 0 0 -1891.81c231.07,-33 462.14,-66.11 693.2,-100.85 -29.26,-307.87 -58.52,-615.75 -87.76,-922.7 -253.12,40.8 -506.26,80.66 -758.76,120.55l36.12 307.96 -580.12 0 -29.02 -217.09c-251.86,38.96 -502.46,77.91 -753.67,115.92l15.85 101.17 -691.69 0c-31.32,-175.79 -62.97,-351.4 -95.01,-526.82 -241.98,-1325.25 -504.97,-2642 -772.08,-3952.32zm4315.88 5356.31c244.87,-34.31 490.35,-68.62 735.86,-104.78 17.18,316.23 33.7,633.36 50.26,949.58 -239.79,31.55 -478.92,61.22 -718.07,91.8 -22.25,-312.5 -45.15,-624.08 -68.05,-936.6zm-1287.89 179.92c242.96,-33.4 487.18,-66.77 730.76,-101.08 28,308.79 55.34,616.67 82.68,925.47 -238.49,30.6 -476.35,60.28 -713.6,89.02 -33.08,-304.15 -66.79,-608.32 -99.85,-913.41zm1177.25 -1578.35c253.76,-40.78 508.16,-81.6 762.56,-123.32 19.08,314.37 38.15,629.65 56.6,944.02 -248.04,38.02 -496.71,74.19 -744.75,111.29 -24.8,-310.66 -48.97,-621.32 -74.41,-931.99zm-2877.91 -904.15c259.48,-45.43 519.61,-89.96 780.37,-136.31 41.97,298.6 84.6,597.2 126.57,895.81 -254.4,41.72 -508.18,82.53 -761.92,123.33 -48.34,-293.95 -96.69,-588.87 -145.02,-882.83zm2757.07 -486.83c262.66,-47.3 525.95,-94.61 789.28,-141.91 21.61,312.53 42.6,625.98 64.22,938.48 -258.22,44.53 -515.17,87.17 -772.11,129.84 -26.7,-308.82 -54.69,-616.7 -81.39,-926.41zm-1382.68 245.73c261.4,-46.35 522.81,-91.8 784.83,-139.09 31.8,306.01 63.61,612.04 95.41,917.13 -255.68,43.59 -511.34,85.32 -767.03,127.04 -37.52,-301.38 -75.67,-603.69 -113.2,-905.08zm-1600.17 -1077.56c268.39,-51 537.42,-102.92 807.73,-154.88 44.51,296.76 89.04,594.44 132.91,891.18 -263.3,48.22 -526.59,95.53 -789.27,142.82 -50.24,-293.05 -101.13,-586.08 -151.37,-879.12zm2851.84 -552.69c272.18,-53.79 544.4,-107.57 816.61,-161.37 23.54,311.6 47.07,622.24 69.95,934.76 -265.84,49.16 -532.33,99.24 -798.18,148.37 -29.26,-307.88 -58.5,-613.89 -88.38,-921.76zm-1429.73 279.11c270.28,-51 540.58,-103.86 811.53,-156.72 34.34,304.17 68.04,607.42 102.39,911.59 -265.21,49.13 -529.79,97.37 -794.38,145.58 -40.06,-299.52 -80.14,-599.06 -119.54,-900.45zm-1657.44 -1036.76c277.3,-57.49 555.88,-114.98 833.79,-173.41 47.08,294.9 94.13,589.79 140.56,885.61 -272.19,53.78 -544.42,107.59 -816.62,160.43 -52.15,-291.2 -104.93,-581.44 -157.73,-872.63zm2945.96 -619.46c281.1,-60.27 562.22,-119.63 843.98,-180.82 25.43,310.66 51.52,620.37 76.95,931.04 -275.39,55.64 -550.77,111.29 -825.52,166.92 -31.17,-306.03 -63.6,-611.12 -95.41,-917.14zm-1477.42 312.53c279.2,-58.44 559.67,-116.86 839.53,-177.13 35.6,302.3 72.49,604.61 108.11,907.86 -273.49,55.62 -547.58,110.37 -821.06,164.13 -41.99,-298.6 -83.96,-596.28 -126.57,-894.86z"/>
  <path class="fil1" d="M10462.17 13808.21c455.88,-61.71 911.23,-125.22 1364.62,-190.33 452.27,-64.93 903.33,-132.55 1353.03,-201.33 448.65,-68.62 896.01,-139.22 1341.48,-211.63 444.98,-72.34 888.03,-147.7 1331.13,-223.39 -99.82,-409.31 -199.33,-819.28 -296.42,-1227.91 -97.06,-408.51 -193.95,-815.44 -288.5,-1222.75 -94.12,-405.4 -188.06,-811.13 -279.99,-1215.42 -91.86,-404.02 -183.2,-808.31 -273.28,-1210.26 -193.55,55.1 -388.32,110.96 -582.5,166.06 -114.42,-541.56 -227.62,-1080.93 -338.4,-1622.49 -355.45,117.57 -711.28,233.7 -1068.8,347.57 -357.65,113.92 -717,224.86 -1077.32,336.55 82.79,515.13 166.77,1030.97 251.99,1548.29 -336.61,88.18 -674.3,176.06 -1012.21,261.6 -338.3,85.65 -678.65,171.94 -1018.27,254.99 43.83,363.74 89.53,729.03 136.34,1094.16 46.92,366 95.11,733.42 144.24,1099.3 49.46,368.2 100.49,737.11 152.16,1105.91 51.8,369.7 105.91,740.72 160.68,1111.07zm9.13 -3940.9c256.85,-60.25 512.5,-120.51 768.74,-181.51 49.9,324.8 101.02,651.07 152.77,977.34 -261.72,55.84 -524.05,111.69 -786.37,166.06 -46.26,-320.39 -91.31,-640.76 -135.14,-961.89zm3367.7 819.33c260.5,-57.3 519.78,-114.61 779.08,-173.41 76.7,349.05 155.2,698.09 234.34,1047.14 -265.98,53.65 -531.36,105.81 -796.74,157.98 -73.03,-343.9 -145.48,-687.8 -216.68,-1031.71zm-320.15 -1570.32c250.76,-64.67 500.93,-130.8 751.08,-197.68 74.25,346.85 149.72,692.95 225.81,1040.52 -256.24,61 -512.5,121.25 -769.34,181.51 -70.01,-341.69 -139.39,-683.39 -207.56,-1024.34zm-1055.41 -1463.79c241.64,-72 483.28,-145.49 725.52,-218.98 64.52,338.76 130.86,677.5 197.81,1016.28 -247.72,68.33 -495.45,135.93 -743.79,204.27 -60.85,-335.08 -121.1,-668.7 -179.55,-1001.58zm-194.77 3369.94c262.33,-55.12 524.66,-110.23 787.6,-165.35 64.5,338.03 130.86,676.79 197.81,1015.54 -269.03,50.7 -536.84,100.68 -805.86,149.9 -60.88,-332.88 -121.13,-667.23 -179.56,-1000.09zm-264.77 -1523.31c253.82,-62.45 507.02,-125.66 760.22,-189.57 62.08,335.8 125.38,672.35 189.29,1008.91 -259.29,58.06 -518.57,116.1 -777.86,173.43 -57.83,-330.68 -115.03,-662.09 -171.64,-992.77zm-1323.82 1843.69c265.98,-52.16 531.35,-105.06 796.13,-157.98 52.95,327.74 107.11,656.21 161.89,984.67 -271.47,47.76 -542.31,95.53 -814.37,142.56 -48.7,-323.33 -96.78,-646.67 -143.65,-969.26z"/>
  <path class="fil3" d="M28902.42 17024.75c-461.29,9.51 -922.34,17.17 -1381.67,22.93 -458.23,5.75 -915.64,8.66 -1371.93,10.2 -455.18,1.56 -909.43,0.94 -1362.06,-1.77 -452.14,-2.72 -902.83,-8.7 -1353.63,-15.03 35.48,-421.04 70.52,-842.72 103.38,-1262.66 32.87,-419.82 65.81,-838.07 96.36,-1256.33 30.43,-416.29 60.63,-832.9 89.04,-1247.73 28.41,-414.58 56.26,-829.35 83.22,-1241.6 200.32,24.59 401.98,49.75 602.92,74.26 29.44,-554.37 58.01,-1106.37 83.84,-1660.17 370.44,61.4 741.03,121.33 1112.94,178.74 372.04,57.45 745.32,111.67 1119.68,166.51 -2.18,523.25 -5.47,1047.42 -9.71,1573.25 347.2,35.2 695.43,69.94 1043.52,102.32 348.5,32.45 699.11,65.2 1048.52,94.85 12.95,367.22 24.28,736.27 34.5,1105.33 10.25,369.93 19.44,741.49 27.46,1111.64 8.06,372.5 14.67,745.97 20.63,1119.43 5.99,374.35 9.88,750.37 13,1125.84zm-619.88 -3903.59c-263.86,-19.89 -526.5,-39.97 -789.88,-60.69 0.91,329.57 0.82,660.8 0.12,992.1 267.99,14.78 536.59,29.45 804.95,42.67 -3.82,-324.64 -8.84,-649.08 -15.19,-974.09zm-3210.01 1333.88c-267.02,-16.41 -532.82,-33.02 -798.88,-51.09 -21.88,357.76 -45.58,715.79 -69.88,1073.92 271.87,11.94 542.92,22.49 813.95,33.06 19.07,-352.1 37.55,-704.09 54.8,-1055.89zm73.83 -1605.65c-258.5,-25.2 -516.64,-51.97 -774.87,-79.46 -19.81,355.2 -40.96,709.85 -62.48,1066.05 263.37,20.72 526.62,40.69 790.47,60.6 16.4,-349.42 32.18,-698.76 46.89,-1047.19zm818.93 -1614.03c-250.61,-33.91 -501.45,-69.27 -752.86,-104.54 -11.42,345.68 -24.65,691.63 -38.48,1037.68 256.05,29.32 511.99,57.91 768.67,87.14 8.36,-341.46 16.35,-681.37 22.68,-1020.27zm715.32 3309.03c-268.49,-13.93 -536.96,-27.89 -806.06,-41.75 -11.53,344.94 -24.76,690.9 -38.6,1036.95 274.44,8.54 547.55,16.55 821.76,23.63 8.72,-339.28 16.59,-679.93 22.9,-1018.83zm26.24 -1550.46c-261.19,-22.55 -521.87,-45.92 -782.67,-70.01 -9.46,342.37 -20.02,685.67 -31.19,1029.07 265.94,17.33 531.85,34.65 797.66,51.27 6.04,-336.64 11.36,-673.88 16.2,-1010.32zm1597.54 1621.71c-271.66,-10.47 -542.81,-21.76 -813.37,-33.15 -1.66,332.97 -4.43,666.83 -7.8,1000.8 276.4,5.24 552.18,10.59 829.06,15.03 -1.87,-327.93 -4.34,-655.78 -7.89,-982.68z"/>
  <polygon class="fil1" points="15170.25,9565.18 16336.15,15418.02 19705.57,15183.78 19398.49,8760.78 "/>
  <path class="fil3" d="M14634.22 9287.98c848.67,-168.57 1700.02,-337.87 2554.55,-510.67 857.41,-173.4 1717.43,-349.51 2581.92,-529.61 90.57,1269.71 176.74,2546.59 243.16,3828.05 66.7,1286.76 113.69,2581.37 156.85,3881.5 -698.52,70.73 -1394.58,139.31 -2086.43,205.6 -689.98,66.11 -1376.99,128.28 -2060.91,189.13 -207.91,-1192.4 -419.17,-2380.74 -651.11,-3559.12 -231.31,-1175.21 -482.69,-2342.89 -738.03,-3504.87zm1670.62 5064.05c231.62,-28.78 463.25,-56.75 694.87,-87.18 36.48,267.28 72.95,534.54 108.82,801.8 -226.15,26.3 -452.3,50.99 -677.24,75.66 -41.94,-263.15 -83.9,-526.3 -126.45,-790.28zm2454.85 -314.15c234.05,-30.42 468.72,-60.85 703.38,-92.91 16.43,280.42 32.23,561.66 48.03,842.08 -229.2,27.97 -457.77,54.28 -686.36,81.42 -21.27,-277.14 -43.17,-553.45 -65.05,-830.58zm-1231.08 159.54c232.24,-29.6 465.69,-59.2 698.52,-89.63 26.76,273.84 52.9,546.87 79.04,820.69 -227.98,27.15 -455.35,53.47 -682.11,78.97 -31.61,-269.74 -63.83,-539.47 -95.45,-810.03zm-1419.51 -1027.12c240.13,-33.71 479.66,-68.25 720.4,-102.79 38.29,265.63 76.61,531.24 114.3,796.86 -234.68,32.08 -469.34,62.51 -703.41,92.94 -43.16,-262.35 -86.93,-524.66 -131.29,-787.01zm2544.82 -372.52c242.56,-36.18 485.74,-72.37 728.91,-109.37 18.25,278.79 36.48,558.38 54.11,837.15 -237.1,33.71 -474.79,65.79 -711.89,98.68 -23.72,-275.48 -46.81,-550.97 -71.13,-826.46zm-1276.68 189.14c241.36,-35.36 483.31,-70.73 725.27,-106.9 27.97,272.19 55.93,545.22 83.9,818.24 -235.88,32.9 -471.76,64.15 -707.64,95.39 -33.43,-268.09 -67.49,-537.82 -101.53,-806.73zm-1474.24 -990.93c248.03,-40.31 496.68,-79.79 745.94,-120.88 40.12,264.78 80.85,529.58 120.98,794.39 -243.19,37 -485.75,73.19 -728.31,109.37 -46.2,-260.68 -92.41,-522.2 -138.61,-782.88zm2635.42 -431.73c251.07,-41.94 502.76,-83.88 754.45,-125.83 20.66,277.14 40.72,555.09 61.4,832.22 -246.83,39.48 -492.45,77.3 -738.04,115.13 -25.53,-273.86 -52.28,-546.87 -77.81,-821.53zm-1321.67 217.91c249.87,-41.11 499.73,-81.4 750.21,-123.35 30.39,271.38 60.79,542.75 91.19,813.3 -244.39,38.66 -488.78,75.67 -733.19,112.67 -35.87,-267.26 -72.34,-535.36 -108.21,-802.62zm-1529.57 -955.56c256.54,-45.22 513.72,-91.28 772.08,-137.34 42.55,263.15 85.12,527.13 127.06,790.28 -251.68,42.77 -503.38,84.72 -754.45,126.66 -48.03,-259.88 -96.66,-519.73 -144.69,-779.6zm2726 -490.12c260.18,-47.7 520.39,-95.39 780.59,-143.1 22.49,276.32 44.97,551.8 66.86,828.94 -254.12,43.59 -508.85,88 -762.96,131.57 -27.97,-273.02 -55.93,-544.4 -84.49,-817.41zm-1366.65 247.51c258.37,-45.22 516.75,-92.1 775.72,-138.97 32.84,269.73 65.05,538.64 97.89,808.38 -253.52,43.58 -506.42,86.35 -759.32,129.11 -38.29,-265.63 -76.61,-531.24 -114.29,-798.52zm-1584.3 -919.39c265.06,-50.97 531.35,-101.97 797,-153.76 45,261.5 89.99,523.01 134.37,785.33 -260.19,47.7 -520.4,95.41 -780.59,142.28 -49.86,-258.23 -100.31,-515.63 -150.78,-773.85zm2815.97 -549.33c268.7,-53.44 537.42,-106.07 806.73,-160.34 24.33,275.48 49.25,550.13 73.56,825.64 -263.24,49.34 -526.47,98.68 -789.1,148.02 -29.79,-271.36 -60.79,-541.94 -91.19,-813.31zm-1412.23 277.14c266.88,-51.82 534.98,-103.61 802.48,-157.08 34.03,268.09 69.28,536.17 103.34,805.08 -261.41,49.34 -523.43,97.87 -784.84,145.56 -40.13,-264.8 -80.26,-528.76 -120.98,-793.57z"/>
  <path class="fil2" d="M15462.22 9664.62c265.06,-50.97 531.35,-101.97 797,-153.76 45,261.5 89.99,523.01 134.37,785.33 -260.19,47.7 -520.4,95.41 -780.59,142.28 -49.86,-258.23 -100.31,-515.63 -150.78,-773.85z"/>
  <path class="fil2" d="M17216.74 11782.17c249.87,-41.11 499.73,-81.4 750.21,-123.35 30.39,271.38 60.79,542.75 91.19,813.3 -244.39,38.66 -488.78,75.67 -733.19,112.67 -35.87,-267.26 -72.34,-535.36 -108.21,-802.62z"/>
  <path class="fil2" d="M18538.4 11564.26c251.07,-41.94 502.76,-83.88 754.45,-125.83 20.66,277.14 40.72,555.09 61.4,832.22 -246.83,39.48 -492.45,77.3 -738.04,115.13 -25.53,-273.86 -52.28,-546.87 -77.81,-821.53z"/>
  <path class="fil2" d="M18759.68 14037.88c234.05,-30.42 468.72,-60.85 703.38,-92.91 16.43,280.42 32.23,561.66 48.03,842.08 -229.2,27.97 -457.77,54.28 -686.36,81.42 -21.27,-277.14 -43.17,-553.45 -65.05,-830.58z"/>
  <path class="fil2" d="M16304.84 14352.03c231.62,-28.78 463.25,-56.75 694.87,-87.18 36.48,267.28 72.95,534.54 108.82,801.8 -226.15,26.3 -452.3,50.99 -677.24,75.66 -41.94,-263.15 -83.9,-526.3 -126.45,-790.28z"/>
  <polygon class="fil3" points="33248.52,16936.95 27526.2,16175.63 21856.09,16322.02 22020.37,14892.29 13908.85,15913.75 10865.59,14238.43 8288.47,15518.26 5499.05,14473.89 3375.7,16204.11 7177.03,17210.74 4887.52,18307.31 12719.86,18307.31 33248.52,18307.31 "/>
  <polygon class="fil4" points="30780.87,17578.09 31176.29,17542.75 31138.2,15532.73 31890.12,14534.34 31811.82,14299.74 31117.89,15113.04 31077.18,14271.08 31340.3,13888.49 31325.45,13800.95 31062.82,13974.32 31045.25,13611.23 31985.43,13061.76 31987.38,12917.22 30994.99,13380.09 29996.16,11752.65 30105.58,11008.62 29989.01,10951.38 29831.08,11513.63 29681.09,11296.48 29481.39,10562.09 29394.67,10659.97 29504.76,11173.03 28480.89,10650.57 28435.96,10738.83 29544.8,11359.72 30074.58,12235.26 29453.29,12163.22 29469.08,12282.2 30199.82,12413.5 30495.82,12967.29 30239.75,13020.68 30292.63,13090.64 30553.66,13077 30815.21,13525.7 30794.97,14753.97 30152.36,14331.86 30019.18,14454.19 30792.38,15091.13 30786.53,15858.94 30764.62,15857.38 30037.1,15197.81 29957.58,15338.54 30406.39,15831.76 29991.9,15802.1 29953.91,15945.42 30683.04,16135.78 30783.57,16246.25 "/>
  <polygon class="fil5" points="11687.09,18307.31 11716.7,17634.82 10973.67,16671.37 11058.09,16463.53 11746.05,17254.33 11804.91,16490.93 11545.58,16123.55 11562.5,16044.96 11825.66,16221.89 11851.04,15892.68 10907.46,15324.1 10908.47,15192.41 11906.9,15685.97 12955.29,14277.43 12859.6,13592.26 12979.22,13548.66 13127.94,14071.91 13284.81,13885.18 13502.93,13231.28 13588.98,13326.68 13466.5,13785.65 14517.35,13384.68 14561.17,13468.28 13421.94,13952.66 12865.61,14710.98 13498.21,14690.65 13479.69,14797.79 12734.71,14864.1 12422.53,15346.58 12681.52,15413.83 12626.36,15473.64 12361.49,15442.25 12086.49,15831.59 12081.56,16951.02 12743.05,16613.63 12875.79,16734.66 12077.15,17258.09 12065.21,18307.31 "/>
  <polygon class="fil5" points="12486.04,15065.53 11940.27,14747.87 12062.13,14317.62 11986.33,14283.14 11809.75,14681.75 11194.43,14313.79 11000.42,13803.93 10897.94,13801.41 10991.87,14208.79 10807.84,14113.41 10400.8,13700.48 10375.67,13788.77 10639.41,14085.9 10174.86,14178.67 10175.5,14248.53 10735.37,14194.02 11424.92,14600.66 10963.57,14736.79 11017.92,14808.56 11577.48,14678.33 11986.25,14947.02 11826.33,15056.48 11888.81,15085.87 12066.69,15000.47 12413.09,15211.79 "/>
  <g id="_3080476576704">
   <path class="fil4" d="M4168.8 12651.22l232.82 -34.01c28.8,-4.2 48.76,-30.98 44.54,-59.78l-37.96 -259.88c-4.2,-28.81 -30.98,-48.76 -59.78,-44.54l-232.82 34c-28.83,4.22 -48.77,30.98 -44.56,59.81l37.96 259.87c4.2,28.8 30.97,48.76 59.79,44.54z"/>
   <path class="fil6" d="M4293.63 12446.99c5.66,38.7 -21.13,74.66 -59.82,80.3 -38.7,5.66 -74.66,-21.13 -80.3,-59.82 -5.66,-38.7 21.13,-74.66 59.84,-80.3 38.69,-5.66 74.65,21.13 80.29,59.82z"/>
   <path class="fil6" d="M5280.64 13669.05l-657.48 96.03c-35.79,5.23 -69.05,-19.55 -74.27,-55.32l-281.8 -1929.28c-5.23,-35.78 19.55,-69.03 55.34,-74.26l657.48 -96.05c35.79,-5.23 69.05,19.55 74.27,55.34l281.8 1929.26c5.23,35.79 -19.55,69.05 -55.34,74.27z"/>
   <path class="fil6" d="M4355.52 11758.6c-21.43,3.13 -43.68,-6.24 -56.04,-25.69l-428.93 -676.32c-16.75,-26.39 -8.93,-61.37 17.48,-78.12 26.41,-16.72 61.38,-8.93 78.14,17.48l428.93 676.3c16.75,26.41 8.93,61.4 -17.48,78.14 -6.94,4.4 -14.47,7.1 -22.1,8.21z"/>
   <polygon class="fil6" points="4482.06,11868.88 4873.47,11811.71 4683.26,10509.47 4291.83,10566.64 "/>
   <path class="fil4" d="M5538.83 11714.52l-878.91 128.38c-55.92,8.17 -107.89,-30.55 -116.05,-86.48l-33.31 -228.07c-6.21,-42.4 14.64,-84.15 52.26,-104.66l831.43 -453.37c62.57,-34.12 139.98,4.56 150.29,75.08l80.78 553.06c8.17,55.92 -30.55,107.9 -86.48,116.07z"/>
   <path class="fil6" d="M5130.62 11502.66c5.64,38.7 -21.15,74.65 -59.82,80.3 -38.72,5.66 -74.66,-21.13 -80.3,-59.84 -5.66,-38.69 21.12,-74.63 59.84,-80.29 38.67,-5.64 74.63,21.13 80.29,59.82z"/>
   <path class="fil4" d="M4063.46 11930.02l443.02 -64.71c28.81,-4.2 48.76,-30.98 44.56,-59.78l-37.96 -259.88c-4.22,-28.81 -30.98,-48.76 -59.79,-44.54l-443.02 64.71c-28.83,4.2 -48.77,30.97 -44.56,59.78l37.96 259.88c4.2,28.81 30.97,48.76 59.79,44.54z"/>
   <path class="fil6" d="M4188.3 11725.81c5.64,38.69 -21.15,74.65 -59.84,80.29 -38.7,5.66 -74.65,-21.12 -80.3,-59.82 -5.66,-38.7 21.13,-74.65 59.84,-80.3 38.69,-5.66 74.65,21.13 80.3,59.84z"/>
   <path class="fil4" d="M5277.77 12360.45l-380.14 55.53c-30.95,4.52 -59.68,-16.9 -64.21,-47.84 -4.52,-30.94 16.89,-59.69 47.84,-64.21l380.14 -55.53c30.94,-4.52 59.69,16.9 64.21,47.84 4.52,30.95 -16.9,59.69 -47.84,64.21z"/>
   <path class="fil4" d="M5322.8 12668.69l-380.14 55.53c-30.95,4.52 -59.69,-16.89 -64.21,-47.84 -4.53,-30.94 16.89,-59.68 47.84,-64.21l380.14 -55.52c30.94,-4.52 59.68,16.89 64.21,47.84 4.52,30.94 -16.9,59.68 -47.84,64.19z"/>
   <path class="fil7" d="M4217.69 14013.21c-1.72,0.25 -3.45,0.5 -5.18,0.76 -141.2,20.08 -284.92,33.62 -423.89,46.72 -25.04,2.36 -50.08,4.74 -75.08,7.13 -31.13,2.99 -58.77,-19.83 -61.77,-50.96 -2.97,-31.13 19.71,-58.71 50.97,-61.75 25.06,-2.39 50.16,-4.77 75.24,-7.14 137.68,-12.98 280.02,-26.39 418.59,-46.1 196.22,-27.83 334.63,-92.97 388.53,-183.04 70.32,-117.57 49.81,-271.05 22.78,-418.17 -59.96,-326.3 -107.59,-643.72 -32.72,-940.01 28.8,-113.97 81.75,-210.11 153.14,-278.03 74.6,-70.98 174.04,-119.32 312.96,-152.16 119.62,-28.28 241.89,-50.44 360.16,-71.87 124.37,-22.55 252.96,-45.85 377.02,-76.1 188.61,-46.01 355.56,-148.31 470.1,-288.1 19.81,-24.13 55.47,-27.73 79.68,-7.9 24.18,19.83 27.71,55.49 7.9,79.68 -130.01,158.65 -318.53,274.54 -530.84,326.31 -127.36,31.06 -257.67,54.67 -383.67,77.51 -116.8,21.18 -237.59,43.07 -354.31,70.65 -118.56,28.03 -201.48,67.43 -260.95,124.01 -55.87,53.14 -97.85,130.52 -121.4,223.73 -69.3,274.18 -23.32,578.29 34.28,891.8 29.59,161 53.56,345.41 -36.97,496.77 -91.01,152.13 -301.72,212.47 -464.57,236.25z"/>
   <path class="fil4" d="M5049.76 9916.67c709.78,528.85 1088.34,1131.75 898.76,1386.21 -189.6,254.44 -875.57,64.1 -1585.34,-464.76 -709.75,-528.81 -1088.36,-1131.67 -898.76,-1386.11 189.59,-254.46 875.6,-64.18 1585.34,464.66z"/>
   <path class="fil6" d="M5290.65 9593.31c1435,1069.2 2328.87,2115.69 2104.03,2417.42 -224.82,301.72 -1483.2,-255.5 -2918.19,-1324.71 -1434.91,-1069.14 -2328.81,-2115.57 -2103.98,-2417.32 224.82,-301.73 1483.24,255.45 2918.14,1324.61z"/>
   <path class="fil6" d="M7423.61 11533.09l-105.23 307.82c-209.7,281.42 -1445.53,-284.62 -2760.35,-1264.31 -1314.78,-979.61 -2210.68,-2001.9 -2001,-2283.34l264.89 -188.89 4601.69 3428.71z"/>
   <path class="fil4" d="M5502.42 9309.12c1314.82,979.68 2130.86,1942.56 1921.18,2223.97 -209.68,281.42 -1365.7,-225.16 -2680.54,-1204.84 -1314.78,-979.62 -2130.85,-1942.44 -1921.15,-2223.87 209.68,-281.42 1365.73,225.11 2680.51,1204.74z"/>
   <path class="fil4" d="M5466.04 9357.95c1279.9,953.65 2086.04,1875.14 1896.46,2129.59 -189.6,254.47 -1303.13,-254.46 -2583.05,-1208.11 -1279.84,-953.6 -2086.01,-1875.05 -1896.43,-2129.5 189.6,-254.46 1303.18,254.42 2583.02,1208.02z"/>
   <path class="fil7" d="M3771.02 8833.6c-11.61,-8.67 -19.92,-21.76 -22.19,-37.22 -4.52,-30.94 16.9,-59.69 47.84,-64.21l2517.69 -367.75c30.94,-4.53 59.69,16.9 64.21,47.82 4.52,30.95 -16.89,59.69 -47.84,64.21l-2517.69 367.77c-15.48,2.26 -30.39,-1.96 -42.02,-10.62z"/>
   <path class="fil7" d="M6656.47 10983.53c-11.6,-8.66 -19.93,-21.74 -22.19,-37.2l-367.75 -2517.7c-4.53,-30.95 16.9,-59.71 47.82,-64.21 30.94,-4.53 59.69,16.9 64.21,47.82l367.75 2517.7c4.53,30.94 -16.89,59.69 -47.84,64.21 -15.46,2.26 -30.39,-1.98 -42,-10.62z"/>
   <path class="fil7" d="M5213.74 9908.56c-25.07,-18.68 -30.24,-54.15 -11.57,-79.22l1080.16 -1449.69c18.68,-25.06 54.15,-30.25 79.22,-11.57 25.09,18.68 30.27,54.17 11.57,79.22l-1080.16 1449.68c-18.67,25.1 -54.14,30.27 -79.22,11.58z"/>
   <path class="fil6" d="M6512.72 8562.13c-37.64,50.5 -153.27,28.01 -258.32,-50.26 -105.02,-78.26 -159.66,-182.64 -122.02,-233.15 37.62,-50.48 153.27,-28 258.31,50.27 105.02,78.26 159.66,182.64 122.04,233.13z"/>
   <path class="fil4" d="M6337.75 8162.99l-128.77 172.83c-19.16,25.72 16.16,84.45 78.86,131.19 62.72,46.72 129.09,63.76 148.25,38.05l128.78 -172.83 -227.13 -169.24z"/>
   <path class="fil4" d="M6564.88 8332.22c-19.16,25.72 -85.53,8.67 -148.25,-38.07 -62.72,-46.72 -98.04,-105.46 -78.88,-131.17 19.16,-25.71 85.53,-8.67 148.27,38.05 62.72,46.74 98.02,105.46 78.86,131.19z"/>
  </g>
 </g>
</svg>
