<?xml version="1.0" encoding="UTF-8"?>
<!DOCTYPE svg PUBLIC "-//W3C//DTD SVG 1.1//EN" "http://www.w3.org/Graphics/SVG/1.1/DTD/svg11.dtd">
<!-- Creator: CorelDRAW 2021 (64-Bit) -->
<svg xmlns="http://www.w3.org/2000/svg" xml:space="preserve" width="192.152mm" height="26.3181mm" version="1.1" style="shape-rendering:geometricPrecision; text-rendering:geometricPrecision; image-rendering:optimizeQuality; fill-rule:evenodd; clip-rule:evenodd"
viewBox="0 0 14138.92 1936.54"
 xmlns:xlink="http://www.w3.org/1999/xlink"
 xmlns:xodm="http://www.corel.com/coreldraw/odm/2003">
 <defs>
  <style type="text/css">
   <![CDATA[
    .fil0 {fill:#1F1B20;fill-rule:nonzero}
    .fil1 {fill:#587B81;fill-rule:nonzero}
   ]]>
  </style>
 </defs>
 <g id="Слой_x0020_1">
  <metadata id="CorelCorpID_0Corel-Layer"/>
  <path class="fil0" d="M-0 685.07l200.16 -50.98c43.12,91.19 142.16,136.74 297.15,136.74 17.39,0 35.21,-1.03 53.46,-3.11 18.2,-2.03 41.43,-6.41 69.62,-13.04 28.16,-6.64 51.16,-18.42 69.01,-35.44 17.81,-16.98 26.72,-38.34 26.72,-64.02 0,-11.61 -1.87,-21.96 -5.58,-31.08 -3.75,-9.14 -10.79,-16.98 -21.14,-23.64 -10.38,-6.63 -19.9,-11.99 -28.58,-16.17 -8.73,-4.14 -22.19,-8.25 -40.43,-12.42 -18.23,-4.14 -32.94,-7.26 -44.14,-9.33 -11.19,-2.03 -28.81,-4.77 -52.82,-8.08 -69.62,-10.77 -118.11,-18.45 -145.46,-23 -27.37,-4.55 -57.63,-10.99 -90.76,-19.26 -33.16,-8.29 -60.93,-17.83 -83.3,-28.59 -92,-43.1 -138,-112.71 -138,-208.88 0,-62.15 19.45,-114.59 58.42,-157.27 38.95,-42.69 88.26,-72.92 147.97,-90.78 59.65,-17.78 127.61,-26.72 203.9,-26.72 227.9,0 381.22,70.06 459.99,210.12l-207.64 52.22c-37.29,-70.45 -123.5,-105.69 -258.6,-105.69 -127.64,0 -191.45,34.01 -191.45,101.94 0,35.66 23.16,60.93 69.62,75.85 19.87,5.8 113.96,23.61 282.2,53.47 30.66,5.8 55.96,10.77 75.86,14.9 19.89,4.15 45.37,12.44 76.44,24.86 31.1,12.43 55.76,26.96 73.99,43.53 18.2,16.56 34.38,39.15 48.49,67.75 14.08,28.58 21.12,61.54 21.12,98.85 0,196.44 -148.77,294.63 -446.34,294.63 -124.32,0 -224.37,-20.27 -300.24,-60.9 -75.85,-40.59 -135.72,-102.74 -179.64,-186.48zm9600.47 220.04l-294.65 0 -343.16 -377.96 -133.01 114.41 0 263.55 -218.82 0 0 -877.75 218.82 0 0 384.16 427.67 -384.16 283.48 0 -427.7 370.48 487.38 507.27zm-1539.15 0l-216.33 0 -542.06 -615.42 0 615.42 -208.88 0 0 -877.75 220.08 0 538.32 612.92 0 -612.92 208.87 0 0 877.75zm-1510.56 0.02l-220.05 0 0 -877.77 220.05 0 0 877.77zm-640.28 -0.02l-707.43 0 0 -877.75 220.08 0 0 716.13 487.36 0 0 161.62zm-1900.92 -723.58l0 215.07 361.78 0c81.23,0 121.84,-34.8 121.84,-104.44 0,-73.74 -43.52,-110.62 -130.56,-110.62l-353.06 0zm744.69 723.58l-259.81 0 -233.76 -353.09 -251.13 0 0 353.09 -218.83 0 0 -877.75 604.24 0c62.18,0 110.62,5.4 145.44,16.14 55.52,16.61 98.64,47.08 129.32,91.42 30.63,44.33 45.98,95.94 45.98,154.77 0,42.28 -7.88,80.82 -23.61,115.63 -18.26,41.46 -44.12,71.68 -77.71,90.74 -33.55,19.08 -76.05,33.18 -127.44,42.27l267.29 366.78zm-1751.74 -320.78l-152.93 -343.13 -155.4 343.13 308.33 0zm391.63 320.8l-246.19 0 -74.58 -165.37 -450.06 0 -74.61 165.37 -239.94 0 423.95 -877.76 237.45 0 423.98 877.76zm-1250.73 -717.37l-324.48 0 0 717.36 -221.32 0 0 -717.36 -325.72 0 0 -160.39 871.52 0 0 160.39z"/>
  <path class="fil1" d="M2591.57 1820.29c61.93,0 112.51,-17 152.04,-51 39.54,-34 59.44,-73.68 59.44,-119.01 0,-19.49 -3.73,-37.46 -11.2,-53.91 -7.46,-16.45 -15.75,-29.44 -24.88,-38.84 -9.26,-9.54 -19.76,-17.97 -31.65,-25.3 -11.88,-7.46 -20.18,-12.16 -24.88,-14.24 -4.7,-2.07 -8.43,-3.59 -11.06,-4.69l7.6 -4.01c5.39,-2.77 11.75,-7.19 18.8,-13.55 7.19,-6.36 14.38,-13.82 21.7,-22.53 7.33,-8.57 13.55,-20.18 18.66,-34.55 5.11,-14.51 7.74,-29.72 7.74,-45.61 0,-41.32 -18.24,-77.13 -54.74,-107.67 -36.49,-30.54 -84.45,-45.75 -144.16,-45.75l-261.23 0 0 580.67 277.82 0zm-120.25 -124.26l0 -116.24 107.67 0c18.38,0 33.45,5.53 45.06,16.59 11.61,11.06 17.42,24.88 17.42,41.46 0,16.59 -5.81,30.41 -17.42,41.47 -11.61,11.19 -26.68,16.73 -45.06,16.73l-107.67 0zm87.08 -331.73c16.45,0 29.58,4.56 39.26,13.55 9.68,9.12 14.65,21.15 14.65,36.08 0,14.92 -4.97,26.95 -14.65,36.07 -9.68,8.98 -22.81,13.55 -39.26,13.55l-87.08 0 0 -99.24 87.08 0zm876.97 149l21.43 -8.85c14.65,-6.22 29.16,-19.62 43.68,-40.36 14.65,-20.6 21.97,-45.61 21.97,-75.05 0,-43.81 -20.32,-82.38 -60.96,-115.83 -40.63,-33.45 -93.71,-50.18 -158.95,-50.18 -27.5,0 -54.18,3.18 -79.75,9.68 -25.71,6.5 -46.31,13.41 -61.79,20.88 -15.48,7.46 -30.13,16.31 -43.68,26.53 -13.69,10.23 -22.39,17.28 -26.12,21.01 -3.87,3.74 -6.5,6.78 -8.15,8.98l91.09 95.52 12.58 -10.1c7.6,-7.05 20.04,-13.96 37.46,-20.87 17.41,-6.91 35.25,-10.37 53.63,-10.37 25.43,0 44.09,4.14 56.25,12.44 12.16,8.15 18.25,18.93 18.25,32.07 0,13.82 -5.81,25.02 -17.42,33.72 -11.61,8.57 -29.3,12.85 -53.07,12.85l-66.35 0 0 132.83 74.91 0c52.39,-0.28 78.51,16.17 78.51,49.48 0,15.61 -7.6,29.3 -22.81,40.91 -15.34,11.61 -36.62,17.42 -64.27,17.42 -22.12,0 -44.37,-5.11 -66.76,-15.07 -22.39,-9.95 -37.32,-17.97 -44.78,-24.05 -7.33,-6.09 -12.99,-11.06 -16.73,-14.79l-91.51 95.1 10.1 10.23c6.77,6.91 17.14,15.34 31.1,25.02 14.1,9.81 30.13,19.48 48.1,29.16 17.83,9.82 40.5,18.11 67.59,24.88 27.09,6.92 55.01,10.37 83.62,10.37 73.67,0 131.45,-17.14 173.47,-51.42 42.02,-34.27 63.03,-76.57 63.03,-126.75 0,-21.01 -3.74,-40.36 -11.2,-58.06 -7.33,-17.69 -15.75,-31.51 -24.88,-41.6 -9.12,-9.95 -19.76,-18.79 -31.52,-26.53 -11.88,-7.6 -20.18,-12.44 -25.02,-14.52 -4.7,-2.07 -8.43,-3.59 -11.06,-4.69zm420.84 306.98l157.57 0 0 -439.4 257.09 0 0 -141.26 -414.66 0 0 580.67zm1221.13 -580.67l-447.83 0 0 183.42c0,53.21 -2.35,97.44 -7.05,132.83 -4.84,35.39 -11.75,62.06 -20.88,80.03 -9.26,17.84 -19.07,30.27 -29.57,37.19 -10.51,6.91 -23.22,10.36 -38.01,10.36 -11.2,0 -23.5,-2.76 -37.32,-8.15l0 144.99 10.09 4.01c7.05,2.76 17.56,5.53 31.38,8.29 13.97,2.9 27.78,4.28 41.6,4.28 25.3,0 47.97,-3.87 67.73,-11.47 19.9,-7.74 38.84,-21.15 56.95,-40.36 18.11,-19.21 32.9,-44.23 44.51,-75.05 11.61,-30.96 20.87,-70.63 27.78,-118.87 6.92,-48.37 10.37,-104.63 10.37,-168.9l0 -41.33 132.42 0 0 439.4 157.85 0 0 -580.67zm814.63 0l-273.81 0c-61.23,0 -111.82,19.08 -151.62,57.22 -39.81,38.28 -59.71,85.56 -59.71,141.95 0,23.22 3.59,45.06 10.78,65.38 7.05,20.46 15.06,36.49 23.91,48.24 8.7,11.74 18.79,22.53 30.13,32.34 11.33,9.96 19.21,16.17 23.63,18.66 4.42,2.63 8.01,4.42 10.78,5.53l-120.26 211.33 166.01 0 99.65 -182.59 82.93 0 0 182.59 157.57 0 0 -580.67zm-327.58 199.04c0,-16.59 5.67,-30.41 17.14,-41.33 11.47,-10.92 26.4,-16.45 44.78,-16.45l108.09 0 0 115.83 -108.09 0c-18.1,0 -32.89,-5.53 -44.5,-16.59 -11.61,-11.05 -17.42,-24.88 -17.42,-41.46zm611.16 240.64l0 257.23 157.57 0 0 -116.24 298.42 0 0 116.24 157.85 0 0 -257.23 -66.35 0 0 -439.68 -431.24 0 0 182.59c0,34.27 -3.04,66.62 -9.12,97.03 -6.09,30.41 -12.71,54.46 -20.04,72.43 -7.32,17.97 -15.61,34.56 -24.88,49.9 -9.4,15.2 -16.03,24.74 -19.9,28.75l-9.12 8.98 -33.17 0zm273.67 -257.09l0 -41.33 116.24 0 0 298.42 -199.17 0 8.43 -8.43c5.95,-5.95 12.99,-15.89 20.88,-29.72 8.01,-13.96 16.03,-30.27 24.19,-49.06 8.02,-18.8 14.93,-43.13 20.74,-73.26 5.81,-30.13 8.7,-62.34 8.7,-96.61zm1280.57 398.07c61.93,0 112.51,-17 152.04,-51 39.54,-34 59.44,-73.68 59.44,-119.01 0,-19.49 -3.73,-37.46 -11.2,-53.91 -7.46,-16.45 -15.75,-29.44 -24.88,-38.84 -9.26,-9.54 -19.76,-17.97 -31.65,-25.3 -11.88,-7.46 -20.18,-12.16 -24.88,-14.24 -4.7,-2.07 -8.43,-3.59 -11.06,-4.69l7.6 -4.01c5.39,-2.77 11.75,-7.19 18.8,-13.55 7.19,-6.36 14.38,-13.82 21.7,-22.53 7.33,-8.57 13.55,-20.18 18.66,-34.55 5.11,-14.51 7.74,-29.72 7.74,-45.61 0,-41.32 -18.24,-77.13 -54.74,-107.67 -36.49,-30.54 -84.45,-45.75 -144.16,-45.75l-261.23 0 0 580.67 277.82 0zm-120.25 -124.26l0 -116.24 107.67 0c18.38,0 33.45,5.53 45.06,16.59 11.61,11.06 17.42,24.88 17.42,41.46 0,16.59 -5.81,30.41 -17.42,41.47 -11.61,11.19 -26.68,16.73 -45.06,16.73l-107.67 0zm87.08 -331.73c16.45,0 29.58,4.56 39.26,13.55 9.68,9.12 14.65,21.15 14.65,36.08 0,14.92 -4.97,26.95 -14.65,36.07 -9.68,8.98 -22.81,13.55 -39.26,13.55l-87.08 0 0 -99.24 87.08 0zm1081.67 323.16l0 -107.67 103.66 0c16.45,0 30.27,5.11 41.33,15.34 11.06,10.23 16.59,23.08 16.59,38.42 0,14.93 -5.67,27.64 -17,38.15 -11.33,10.5 -25.02,15.75 -40.91,15.75l-103.66 0zm111.82 132.83c62.33,0 112.51,-18.11 150.38,-54.32 38.01,-36.08 56.95,-80.17 56.95,-132.14 0,-51.97 -18.93,-96.07 -56.95,-132.42 -37.87,-36.35 -88.05,-54.46 -150.38,-54.46l-111.82 0 0 -74.5 265.24 0 0 -132.83 -422.81 0 0 580.67 269.39 0zm628.17 -580.67l-170.01 0 203.32 381.49 -8.57 16.59c-5.94,12.16 -16.31,23.49 -31.38,34 -14.92,10.5 -33.58,15.75 -55.7,15.75 -19.35,0 -35.94,-2.63 -49.76,-8.15l0 136.97 8.43 2.35c5.94,2.21 15.2,4.42 27.78,6.49 12.58,2.21 25.44,3.32 38.7,3.32 47,0 88.32,-14.51 123.85,-43.54 35.66,-29.03 64.83,-67.03 87.49,-114.03l203.32 -431.25 -170.14 0 -95.51 236.5 -111.82 -236.5zm586.57 439.68l0 257.23 157.57 0 0 -116.24 298.42 0 0 116.24 157.85 0 0 -257.23 -66.35 0 0 -439.68 -431.24 0 0 182.59c0,34.27 -3.04,66.62 -9.12,97.03 -6.09,30.41 -12.71,54.46 -20.04,72.43 -7.32,17.97 -15.61,34.56 -24.88,49.9 -9.4,15.2 -16.03,24.74 -19.9,28.75l-9.12 8.98 -33.17 0zm273.67 -257.09l0 -41.33 116.24 0 0 298.42 -199.17 0 8.43 -8.43c5.95,-5.95 12.99,-15.89 20.88,-29.72 8.01,-13.96 16.03,-30.27 24.19,-49.06 8.02,-18.8 14.93,-43.13 20.74,-73.26 5.81,-30.13 8.7,-62.34 8.7,-96.61zm744.14 -182.59l-170.01 0 203.32 381.49 -8.57 16.59c-5.94,12.16 -16.31,23.49 -31.38,34 -14.92,10.5 -33.58,15.75 -55.7,15.75 -19.35,0 -35.94,-2.63 -49.76,-8.15l0 136.97 8.43 2.35c5.94,2.21 15.2,4.42 27.78,6.49 12.58,2.21 25.44,3.32 38.7,3.32 47,0 88.32,-14.51 123.85,-43.54 35.66,-29.03 64.83,-67.03 87.49,-114.03l203.32 -431.25 -170.14 0 -95.51 236.5 -111.82 -236.5zm1415.89 0l-157.57 0 0 439.68 -145.27 0 0 -439.68 -157.57 0 0 439.68 -144.99 0 0 -439.68 -157.57 0 0 580.67 671.88 0 0 115.41 157.44 0 0 -256.4 -66.35 0 0 -439.68zm528.65 447.83l0 -99.24 223.92 0 0 -124.68 -223.92 0 0 -91.09 290.4 0 0 -132.83 -447.97 0 0 580.67 455.99 0 0 -132.83 -298.42 0zm773.3 0l0 -99.24 223.92 0 0 -124.68 -223.92 0 0 -91.09 290.4 0 0 -132.83 -447.97 0 0 580.67 455.99 0 0 -132.83 -298.42 0z"/>
 </g>
</svg>
