<?xml version="1.0" encoding="UTF-8"?>
<!DOCTYPE svg PUBLIC "-//W3C//DTD SVG 1.1//EN" "http://www.w3.org/Graphics/SVG/1.1/DTD/svg11.dtd">
<!-- Creator: CorelDRAW 2021 (64-Bit) -->
<svg xmlns="http://www.w3.org/2000/svg" xml:space="preserve" width="63.2492mm" height="63.2493mm" version="1.1" style="shape-rendering:geometricPrecision; text-rendering:geometricPrecision; image-rendering:optimizeQuality; fill-rule:evenodd; clip-rule:evenodd"
viewBox="0 0 2461.94 2461.94"
 xmlns:xlink="http://www.w3.org/1999/xlink"
 xmlns:xodm="http://www.corel.com/coreldraw/odm/2003">
 <defs>
  <style type="text/css">
   <![CDATA[
    .fil0 {fill:#12424F;fill-rule:nonzero}
    .fil1 {fill:#587B81;fill-rule:nonzero}
    .fil2 {fill:#E52D29;fill-rule:nonzero}
    .fil3 {fill:#EDF5F7;fill-rule:nonzero}
   ]]>
  </style>
 </defs>
 <g id="Слой_x0020_1">
  <metadata id="CorelCorpID_0Corel-Layer"/>
  <path class="fil0" d="M888.32 859.41l149.05 149.05c7.98,7.99 7.98,20.93 0,28.91 -7.98,7.98 -20.93,7.98 -28.91,0l-149.05 -149.05c-7.99,-7.98 -7.99,-20.93 0,-28.91 7.98,-7.98 20.93,-7.98 28.91,0z"/>
  <path class="fil0" d="M276.86 8.15l711.68 711.68c10.87,10.87 10.87,28.49 0,39.36l-229.35 229.35c-10.87,10.87 -28.49,10.87 -39.36,0l-711.68 -711.68c-10.87,-10.87 -10.87,-28.49 0,-39.36l229.34 -229.35c10.87,-10.86 28.49,-10.86 39.36,0z"/>
  <path class="fil1" d="M134.1 163.01l98 98 -119.9 119.9 28.91 28.91 119.9 -119.9 102.62 102.62 -119.9 119.9 -0.01 0 28.91 28.91 0 -0 119.9 -119.9 102.63 102.62 -119.9 119.9 28.91 28.91 119.9 -119.9 102.62 102.62 -119.9 119.9 28.91 28.91 0 0 119.9 -119.9 102.62 102.62 -119.9 119.9 -0 0 28.92 28.91 0 -0 119.9 -119.9 72.27 72.27 28.91 -28.91 -72.27 -72.28 119.89 -119.9 0 0 -28.91 -28.91 -0 0 -119.89 119.89 -102.62 -102.62 119.9 -119.89 0 -0 -28.91 -28.91 -119.9 119.9 -102.62 -102.62 119.9 -119.9 -28.91 -28.91 -119.9 119.9 -102.62 -102.62 119.9 -119.9 0 -0 -28.91 -28.91 0 0 -119.9 119.89 -102.62 -102.61 119.9 -119.9 -28.91 -28.92 -119.9 119.9 -98 -98c-7.98,-7.98 -20.93,-7.98 -28.91,0 -7.99,7.99 -7.99,20.93 0,28.91z"/>
  <path class="fil2" d="M8.15 276.86l31.78 31.78 268.7 -268.71 -31.78 -31.78c-10.87,-10.86 -28.49,-10.86 -39.36,0l-229.34 229.35c-10.87,10.87 -10.87,28.49 0,39.36z"/>
  <path class="fil0" d="M1453.47 1424.56l149.05 149.05c7.99,7.98 7.99,20.93 0,28.91 -7.98,7.98 -20.92,7.98 -28.91,0l-149.05 -149.05c-7.99,-7.99 -7.99,-20.93 0,-28.91 7.98,-7.99 20.93,-7.99 28.91,0z"/>
  <path class="fil0" d="M2185.08 2453.79l-711.69 -711.68c-10.87,-10.87 -10.87,-28.49 0,-39.36l229.35 -229.35c10.87,-10.87 28.49,-10.87 39.36,0l711.68 711.68c10.88,10.87 10.88,28.49 0,39.36l-229.34 229.34c-10.87,10.88 -28.5,10.88 -39.36,0z"/>
  <path class="fil1" d="M1573.61 1602.53l72.27 72.27 -119.9 119.9 28.91 28.91 0.01 0 119.9 -119.9 102.62 102.62 -119.9 119.9 -0 0 28.91 28.91 0 -0 119.9 -119.9 102.63 102.62 -119.9 119.9 28.91 28.91 119.9 -119.9 102.62 102.62 -119.9 119.91 -0 0 28.92 28.91 0 -0 119.9 -119.9 102.62 102.62 -119.9 119.9 -0 0 28.91 28.92 0 -0.01 119.9 -119.9 98 98c7.99,7.98 20.93,7.98 28.91,0 7.99,-7.98 7.99,-20.93 0,-28.91l-98.01 -98 119.9 -119.9 0 0 -28.91 -28.91 -0 0 -119.89 119.9 -102.62 -102.62 119.89 -119.89 0 -0 -28.91 -28.91 0 0 -119.9 119.9 -102.62 -102.62 119.9 -119.9 -28.91 -28.91 -119.9 119.9 -102.62 -102.62 119.9 -119.9 0 0 -28.91 -28.91 0 0 -119.9 119.89 -102.62 -102.62 119.9 -119.9 0 -0 -28.92 -28.91 -119.9 119.9 -72.28 -72.27 -28.91 28.91z"/>
  <path class="fil2" d="M2453.78 2185.08l-31.77 -31.78 -268.71 268.7 31.78 31.78c10.87,10.88 28.49,10.88 39.36,0l229.34 -229.34c10.88,-10.87 10.88,-28.49 0,-39.36z"/>
  <path class="fil3" d="M1416.3 643.14l402.49 402.49c35.69,35.69 35.69,93.55 0,129.24l-521.85 521.85c-35.69,35.69 -93.55,35.69 -129.24,0l-402.49 -402.49c-35.7,-35.69 -35.7,-93.56 0,-129.25l521.84 -521.85c35.69,-35.69 93.55,-35.69 129.25,0z"/>
  <polygon class="fil1" points="1603.09,829.94 1632,858.84 980.9,1509.94 951.99,1481.03 "/>
  <polygon class="fil2" points="1076,854.2 1607.74,1385.94 1385.94,1607.74 854.19,1076 "/>
  <path class="fil0" d="M1571.04 675.06l215.84 215.84c20.2,20.2 20.2,52.94 0,73.14l-24.84 24.84 -288.99 -288.98 24.85 -24.85c20.2,-20.19 52.95,-20.19 73.14,0z"/>
  <path class="fil1" d="M938.22 1275.9l247.82 247.82c7.98,7.98 7.98,20.93 0,28.91 -7.99,7.99 -20.93,7.99 -28.91,0l-247.81 -247.81c-7.98,-7.99 -7.98,-20.93 0,-28.91 7.99,-7.99 20.93,-7.99 28.91,0z"/>
  <path class="fil0" d="M1012.95 1664.82l-215.84 -215.84c-20.19,-20.19 -20.19,-52.94 0,-73.14l24.84 -24.85 288.99 288.98 -24.85 24.84c-20.2,20.2 -52.94,20.2 -73.14,0z"/>
  <path class="fil3" d="M404.12 1343.62c48.42,-48.42 247.38,72.04 444.38,269.05 197,197.01 317.47,395.97 269.05,444.38 -48.41,48.42 -247.37,-72.04 -444.38,-269.05 -197.01,-197 -317.47,-395.96 -269.05,-444.38z"/>
  <path class="fil0" d="M848.5 1612.67c197,197 317.46,395.96 269.04,444.38 81.41,-81.41 3.11,-322.52 -193.9,-519.53 -197,-197 -438.12,-275.3 -519.53,-193.9 48.42,-48.42 247.38,72.04 444.38,269.05z"/>
  <path class="fil1" d="M800.37 1660.8c7.98,7.98 7.98,20.93 0,28.91l-181.53 181.53c-7.98,7.98 -20.93,7.98 -28.91,0 -7.98,-7.99 -7.98,-20.93 0,-28.92l181.53 -181.52c7.98,-7.98 20.92,-7.98 28.91,0z"/>
  <path class="fil2" d="M553.53 1820.18c24.15,-24.15 63.31,-24.15 87.46,0 24.15,24.15 24.15,63.31 0,87.46 -24.15,24.15 -63.31,24.15 -87.46,0 -24.15,-24.14 -24.15,-63.3 0,-87.46z"/>
 </g>
</svg>
